<?xml version="1.0" encoding="UTF-8"?>
<svg width="195px" height="38px" viewBox="0 0 195 38" version="1.1" xmlns="http://www.w3.org/2000/svg" xmlns:xlink="http://www.w3.org/1999/xlink">
    <!-- Generator: Sketch 54.1 (76490) - https://sketchapp.com -->
    <title>logo</title>
    <desc>Created with Sketch.</desc>
    <g id="Landing-Page" stroke="none" stroke-width="1" fill="none" fill-rule="evenodd">
        <g id="Home" transform="translate(-320.000000, -200.000000)">
            <g id="logo" transform="translate(320.000000, 200.000000)">
                <path d="M177.338722,17.0077421 C178.094044,13.8830643 180.660882,11.8580586 184.032792,11.8580586 C187.571685,11.8580586 189.619186,14.2903583 190.266141,17.0077421 L177.338722,17.0077421 Z M191.785003,11.3025987 C189.830079,9.07881279 187.077005,7.85433537 184.032792,7.85433537 C180.923904,7.85433537 178.096855,8.99986308 176.072499,11.0795929 C174.086643,13.119956 172.993028,15.9225622 172.993028,18.9711022 C172.993028,25.4125326 177.700593,30.0880853 184.186581,30.0880853 C188.17711,30.0880853 191.656953,28.2683488 193.494643,25.2202414 L193.614041,25.0125929 L190.024749,22.8913334 L189.931956,23.1452702 C188.925077,24.9855553 186.791705,26.0841458 184.225083,26.0841458 C180.752594,26.0841458 178.168451,24.1456603 177.360568,21.0499668 L194.572685,21.0499668 L194.572685,19.9710596 C194.572685,19.8510128 194.58112,19.7177717 194.589773,19.5767437 C194.600371,19.4091108 194.611186,19.2356378 194.611186,19.0481052 C194.611186,16.1263173 193.607335,13.3756232 191.785003,11.3025987 L191.785003,11.3025987 Z" id="E" fill="#FFFFFF"></path>
                <path d="M157.510991,26.0837132 C153.55334,26.0735471 150.4557,22.9531953 150.4557,18.9711022 C150.4557,14.989009 153.55334,11.8688736 157.510991,11.8587075 C161.468642,11.8688736 164.566066,14.989009 164.566066,18.9711022 C164.566066,22.9531953 161.468642,26.0735471 157.510991,26.0837132 M168.647009,18.0637214 L168.647009,0.585555351 L164.566066,0.585555351 L164.566066,10.2853373 C162.659161,8.75955317 160.220805,7.85433537 157.530242,7.85433537 C157.505367,7.85433537 157.480709,7.85584947 157.456051,7.85606577 C157.42923,7.85584947 157.403057,7.85433537 157.376236,7.85433537 C151.185714,7.85433537 146.336472,12.7375366 146.336472,18.9711022 C146.336472,25.2051004 151.185714,30.0880853 157.376236,30.0880853 C157.403057,30.0880853 157.42923,30.0863549 157.456051,30.0863549 C157.480709,30.0863549 157.505367,30.0880853 157.530242,30.0880853 C163.785438,30.0880853 168.68551,25.2051004 168.68551,18.9711022 C168.68551,18.6648206 168.670153,18.3630813 168.647009,18.0637214" id="D" fill="#FFFFFF"></path>
                <path d="M132.341762,26.0841242 C128.37481,26.0841242 125.267436,22.959879 125.267436,18.9710806 C125.267436,14.9827147 128.37481,11.8580369 132.341762,11.8580369 C136.287084,11.8580369 139.377586,14.9827147 139.377586,18.9710806 C139.377586,22.959879 136.287084,26.0841242 132.341762,26.0841242 M132.341762,7.85431374 C126.064936,7.85431374 121.148208,12.737515 121.148208,18.9710806 C121.148208,25.2050787 126.064936,30.0880637 132.341762,30.0880637 C138.596957,30.0880637 143.49703,25.2050787 143.49703,18.9710806 C143.49703,12.737515 138.596957,7.85431374 132.341762,7.85431374" id="O" fill="#FFFFFF"></path>
                <path d="M115.187787,22.6562796 C114.045287,24.8026299 111.813282,26.0842107 109.217459,26.0842107 C105.184535,26.0842107 102.143133,23.0261535 102.143133,18.9711671 C102.143133,14.9161806 105.184535,11.8581235 109.217459,11.8581235 C111.854379,11.8581235 114.08725,13.1503029 115.044596,15.230249 L115.54252,16.3115355 L118.991432,14.2925862 L118.58111,13.4038072 C117.001251,9.98063467 113.413257,7.85418396 109.217459,7.85418396 C102.83616,7.85418396 98.0236893,12.6335609 98.0236893,18.9711671 C98.0236893,25.3087732 102.83616,30.0879339 109.217459,30.0879339 C113.322844,30.0879339 116.961451,27.993712 118.712837,24.622019 L119.182426,23.7183153 L115.719454,21.6574036 L115.187787,22.6562796 Z" id="C" fill="#FFFFFF"></path>
                <path d="M84.0110475,11.8587724 C87.9686987,11.8689385 91.0661225,14.9890739 91.0661225,18.9711671 C91.0661225,22.9532602 87.9686987,26.073612 84.0110475,26.0837781 C80.0533963,26.073612 76.9559724,22.9532602 76.9559724,18.9711671 C76.9559724,14.9890739 80.0533963,11.8689385 84.0110475,11.8587724 M72.8750299,19.8787642 L72.8750299,37.3567139 L76.9559724,37.3567139 L76.9559724,27.6571483 C78.8628781,29.1829324 81.3012342,30.0879339 83.9917967,30.0879339 C84.0166713,30.0879339 84.0413296,30.0864198 84.0659878,30.0864198 C84.0928091,30.0866361 84.1189814,30.0879339 84.1458027,30.0879339 C90.3363245,30.0879339 95.1855665,25.204949 95.1855665,18.9711671 C95.1855665,12.7373852 90.3363245,7.85418396 84.1458027,7.85418396 C84.1189814,7.85418396 84.0928091,7.85591436 84.0659878,7.85613066 C84.0413296,7.85591436 84.0166713,7.85418396 83.9917967,7.85418396 C77.7366011,7.85418396 72.8365284,12.7373852 72.8365284,18.9711671 C72.8365284,19.2774487 72.8518857,19.5791879 72.8750299,19.8787642" id="P" fill="#FFFFFF"></path>
                <path d="M64.5431543,7.85427048 L64.5431543,21.2352715 C64.5431543,24.3478364 62.6438192,26.1329648 59.3322577,26.1329648 C56.0403797,26.1329648 54.1522921,24.3478364 54.1522921,21.2352715 L54.1522921,7.85427048 L50.1347257,7.85427048 L50.1347257,21.2352715 C50.1347257,26.5305252 53.8308695,30.0880204 59.3322577,30.0880204 C64.8520315,30.0880204 68.560937,26.5305252 68.560937,21.2352715 L68.560937,7.85427048 L64.5431543,7.85427048 Z" id="U" fill="#FFFFFF"></path>
                <polygon id="&gt;" fill="#00F5BD" points="0 7.18804315 13.0418417 12.3816357 0 17.6135134 0 22.1876212 19.7138485 14.2033189 19.7138485 10.5960746 0 2.61198869"></polygon>
                <polygon id="_" fill="#00F5BD" points="22.3773735 34.1690927 46.0397886 34.1690927 46.0397886 30.1192975 22.3773735 30.1192975"></polygon>
            </g>
        </g>
    </g>
</svg>